<svg width="205" height="29" viewBox="0 0 205 29" fill="none" xmlns="http://www.w3.org/2000/svg">
<path d="M0.2 1H14.04C20.12 1 22.72 4.76 22.72 9.08C22.72 13.16 20.36 17.56 14.04 17.56H5.64C5.2 17.56 4.96 17.76 4.96 18.24V28H0.24V17.32C0.24 14.28 1.52 13.04 4.48 13.04H14.2C16.88 13.04 17.96 11.2 17.96 9.32C17.96 7.36 16.8 5.72 14.24 5.72H0.2V1ZM27.4284 1H32.1484V28H27.4284V1ZM49.8784 1H60.3184V5.72H49.8784C44.6784 5.72 42.3984 8.32 42.3984 14.52C42.3984 20.68 44.6384 23.28 49.8784 23.28H60.3184V28H49.8784C41.9984 28 37.6784 23.56 37.6784 14.52C37.6784 5.44 42.0384 1 49.8784 1ZM73.1041 1H86.7841V5.72H72.9441C70.5041 5.72 69.4241 7.04 69.4241 8.92C69.4241 10.56 70.2641 12.12 73.4241 12.12H79.7441C87.1041 12.12 88.8241 16.2 88.8241 20.08C88.8241 24.64 86.3841 28 80.2241 28H65.1841V23.28H80.3841C82.9441 23.28 84.1041 21.88 84.1041 19.92C84.1041 18.16 83.1841 16.56 79.8641 16.56H73.5841C66.3841 16.56 64.7041 12.52 64.7041 8.76C64.7041 4.28 67.1041 1 73.1041 1ZM90.7772 1H111.297V5.72H103.417V28H98.6572V5.72H90.7772V1ZM126.168 1H129.848C137.688 1 142.048 5.48 142.048 14.56C142.048 23.6 137.728 28 129.848 28H126.168C118.288 28 113.968 23.6 113.968 14.56C113.968 5.48 118.328 1 126.168 1ZM129.848 5.72H126.168C120.968 5.72 118.688 8.36 118.688 14.56C118.688 20.72 120.928 23.28 126.168 23.28H129.848C135.048 23.28 137.288 20.72 137.288 14.52C137.288 8.36 135.048 5.72 129.848 5.72ZM152.304 6.64V28H147.584V6.4C147.584 2.88 149.584 0.519999 153.784 0.519999C157.544 0.519999 159.224 2.44 160.344 5.52L168.224 22.76C168.544 23.4 169.064 23.88 169.944 23.88C170.944 23.88 171.544 23.28 171.544 22.36V1H176.304V22.56C176.304 26.12 174.264 28.48 170.104 28.48C166.344 28.48 164.624 26.56 163.504 23.48L155.624 6.24C155.264 5.44 154.784 5.08 153.944 5.08C152.864 5.08 152.304 5.68 152.304 6.64ZM190.82 1H204.34V5.72H190.82C187.98 5.72 186.74 7.04 186.74 9.12C186.74 11.32 188.14 12.32 190.86 12.32H204.14V16.6H190.74C188.02 16.6 186.62 17.68 186.62 19.88C186.62 22 187.94 23.28 190.7 23.28H204.38V28H190.7C184.3 28 181.7 24.84 181.7 20.64C181.7 17.56 183.1 15.48 185.58 14.44C183.06 13.4 181.78 11.32 181.78 8.36C181.78 4.04 184.46 1 190.82 1Z" fill="white"/>
</svg>
