<svg width="101" height="94" viewBox="0 0 101 94" fill="none" xmlns="http://www.w3.org/2000/svg">
<path d="M75.0523 93.6287C82.9656 89.1025 89.4908 82.499 93.9224 74.5323C98.3539 66.5657 100.523 57.5391 100.195 48.4287C99.8674 39.3183 97.055 30.471 92.0624 22.8434C87.0697 15.2159 80.0867 9.09847 71.8686 5.15276C63.6505 1.20705 54.51 -0.416774 45.4357 0.456897C36.3614 1.33057 27.6987 4.66849 20.3843 10.1097C13.0699 15.5508 7.38238 22.8882 3.93669 31.3282C0.490998 39.7681 -0.581671 48.9896 0.834696 57.9951L26.9159 53.8931C26.2474 49.6428 26.7537 45.2907 28.3799 41.3073C30.0062 37.3239 32.6905 33.861 36.1426 31.2929C39.5947 28.7249 43.6832 27.1495 47.966 26.7372C52.2487 26.3249 56.5627 27.0912 60.4413 28.9535C64.32 30.8157 67.6157 33.7029 69.9721 37.3028C72.3284 40.9027 73.6557 45.0784 73.8104 49.3781C73.9652 53.6779 72.9414 57.9381 70.8499 61.6981C68.7584 65.4581 65.6787 68.5747 61.9439 70.7109L75.0523 93.6287Z" fill="#ECD71D"/>
</svg>
