<svg width="92" height="87" viewBox="0 0 92 87" fill="none" xmlns="http://www.w3.org/2000/svg">
<path d="M44.2065 1.63397C44.9402 0.147483 47.0598 0.147479 47.7935 1.63397L60.2293 26.8317C60.5206 27.422 61.0837 27.8311 61.7352 27.9258L89.5425 31.9664C91.1829 32.2048 91.838 34.2207 90.6509 35.3778L70.5294 54.9915C70.058 55.451 69.8429 56.113 69.9542 56.7618L74.7042 84.4567C74.9844 86.0905 73.2696 87.3365 71.8023 86.5651L46.9307 73.4893C46.348 73.183 45.652 73.183 45.0693 73.4893L20.1977 86.5651C18.7304 87.3365 17.0156 86.0905 17.2958 84.4567L22.0458 56.7618C22.1571 56.113 21.942 55.451 21.4706 54.9915L1.34907 35.3778C0.162041 34.2207 0.817059 32.2048 2.4575 31.9664L30.2648 27.9258C30.9163 27.8311 31.4794 27.422 31.7707 26.8317L44.2065 1.63397Z" fill="#E13333"/>
</svg>
