<svg width="100" height="87" viewBox="0 0 100 87" fill="none" xmlns="http://www.w3.org/2000/svg">
<line x1="13.4238" y1="38.7539" x2="86.8335" y2="38.7539" stroke="#2AAD09" stroke-width="4"/>
<line x1="0.884766" y1="50.5103" x2="99.6352" y2="50.5103" stroke="#2AAD09" stroke-width="4"/>
<mask id="path-3-inside-1_170_962" fill="white">
<path fill-rule="evenodd" clip-rule="evenodd" d="M73.2277 40.2316L50 0L26.7723 40.2316H73.2277ZM80.3167 52.5101H19.6833L0 86.6025H100L80.3167 52.5101Z"/>
</mask>
<path fill-rule="evenodd" clip-rule="evenodd" d="M73.2277 40.2316L50 0L26.7723 40.2316H73.2277ZM80.3167 52.5101H19.6833L0 86.6025H100L80.3167 52.5101Z" fill="#2AAD09"/>
<path d="M50 0L50.866 -0.5L50 -2L49.134 -0.5L50 0ZM73.2277 40.2316V41.2316H74.9598L74.0938 39.7316L73.2277 40.2316ZM26.7723 40.2316L25.9062 39.7316L25.0402 41.2316H26.7723V40.2316ZM80.3167 52.5101L81.1828 52.0101L80.8941 51.5101H80.3167V52.5101ZM19.6833 52.5101V51.5101H19.1059L18.8172 52.0101L19.6833 52.5101ZM0 86.6025L-0.866025 86.1025L-1.73205 87.6025H0V86.6025ZM100 86.6025V87.6025H101.732L100.866 86.1025L100 86.6025ZM49.134 0.5L72.3617 40.7316L74.0938 39.7316L50.866 -0.5L49.134 0.5ZM27.6383 40.7316L50.866 0.5L49.134 -0.5L25.9062 39.7316L27.6383 40.7316ZM26.7723 41.2316H73.2277V39.2316H26.7723V41.2316ZM80.3167 51.5101H19.6833V53.5101H80.3167V51.5101ZM0.866025 87.1025L20.5493 53.0101L18.8172 52.0101L-0.866025 86.1025L0.866025 87.1025ZM100 85.6025H0V87.6025H100V85.6025ZM79.4507 53.0101L99.134 87.1025L100.866 86.1025L81.1828 52.0101L79.4507 53.0101Z" fill="#2AAD09" mask="url(#path-3-inside-1_170_962)"/>
</svg>
